<?xml version="1.0" encoding="UTF-8" standalone="no"?>
<svg
   xmlns:dc="http://purl.org/dc/elements/1.1/"
   xmlns:cc="http://creativecommons.org/ns#"
   xmlns:rdf="http://www.w3.org/1999/02/22-rdf-syntax-ns#"
   xmlns:svg="http://www.w3.org/2000/svg"
   xmlns="http://www.w3.org/2000/svg"
   xmlns:sodipodi="http://sodipodi.sourceforge.net/DTD/sodipodi-0.dtd"
   xmlns:inkscape="http://www.inkscape.org/namespaces/inkscape"
   inkscape:export-ydpi="199.83673"
   inkscape:export-xdpi="199.83673"
   inkscape:export-filename="/Users/callum/Desktop/logo.png"
   sodipodi:docname="logo.svg"
   inkscape:version="1.0beta2 (2b71d25, 2019-12-03)"
   id="svg8"
   version="1.1"
   viewBox="0 0 101.6 51.858335"
   height="196"
   width="384">
  <defs
     id="defs2" />
  <sodipodi:namedview
     inkscape:window-maximized="1"
     inkscape:window-y="23"
     inkscape:window-x="0"
     inkscape:window-height="855"
     inkscape:window-width="1440"
     units="px"
     showgrid="false"
     inkscape:document-rotation="0"
     inkscape:current-layer="layer2"
     inkscape:document-units="mm"
     inkscape:cy="125.06604"
     inkscape:cx="170.64539"
     inkscape:zoom="1.0289025"
     inkscape:pageshadow="2"
     inkscape:pageopacity="0.0"
     borderopacity="1.0"
     bordercolor="#666666"
     pagecolor="#ffffff"
     id="base" />
  <metadata
     id="metadata5">
    <rdf:RDF>
      <cc:Work
         rdf:about="">
        <dc:format>image/svg+xml</dc:format>
        <dc:type
           rdf:resource="http://purl.org/dc/dcmitype/StillImage" />
        <dc:title />
      </cc:Work>
    </rdf:RDF>
  </metadata>
  <g
     inkscape:label="Layer 2"
     id="layer2"
     inkscape:groupmode="layer">
    <path
       inkscape:export-ydpi="199.83673"
       inkscape:export-xdpi="199.83673"
       style="fill:#43adff;fill-opacity:0.538462;stroke-width:0.164164"
       d="m 19.718367,116.90207 c 0.246098,-0.39304 -0.05399,-0.84675 -0.60373,-0.91274 -0.54596,-0.0655 -0.875026,0.45875 -0.604829,0.96362 0.219635,0.41041 0.93869,0.38014 1.208559,-0.0509 z"
       id="path67"
       transform="translate(14.130321,-101.12323)" />
    <path
       inkscape:export-ydpi="199.83673"
       inkscape:export-xdpi="199.83673"
       style="fill:#43adff;fill-opacity:0.538462;stroke-width:0.164164"
       d="m 1.7580446,117.84815 c 0.1161953,-0.14001 0.1584511,-0.42005 0.099057,-0.65666 -0.081278,-0.32381 -0.207536,-0.41254 -0.5871322,-0.41254 -0.59813127,0 -0.92506364,0.48841 -0.65929877,0.98498 0.20706,0.38691 0.85660737,0.43458 1.14737447,0.0842 z"
       id="path65"
       transform="translate(14.130321,-101.12323)" />
    <path
       inkscape:export-ydpi="199.83673"
       inkscape:export-xdpi="199.83673"
       style="fill:#43adff;fill-opacity:0.538462;stroke-width:0.164164"
       d="m 16.562693,118.31306 c 0.368302,-0.33331 0.390562,-1.09198 0.04224,-1.4403 -0.382912,-0.38291 -1.152972,-0.3264 -1.456446,0.10688 -0.343956,0.49106 -0.321646,0.88236 0.07277,1.27679 0.399214,0.39921 0.937754,0.42195 1.341433,0.0566 z"
       id="path63"
       transform="translate(14.130321,-101.12323)" />
    <path
       inkscape:export-ydpi="199.83673"
       inkscape:export-xdpi="199.83673"
       style="fill:#43adff;fill-opacity:0.538462;stroke-width:0.164164"
       d="m 3.3035823,122.9669 c 0.3569417,-0.261 0.2970711,-0.90988 -0.1073304,-1.16338 -0.6431122,-0.40315 -1.297486,0.71326 -0.6819041,1.16338 0.1612582,0.11792 0.3388343,0.2144 0.3946173,0.2144 0.055783,0 0.233359,-0.0965 0.3946172,-0.2144 z"
       id="path61"
       transform="translate(14.130321,-101.12323)" />
    <path
       inkscape:export-ydpi="199.83673"
       inkscape:export-xdpi="199.83673"
       style="fill:#43adff;fill-opacity:0.538462;stroke-width:0.164164"
       d="m 0.44650626,124.33045 c 0.63592174,-0.63592 0.22521647,-1.64164 -0.67037967,-1.64164 -0.92962749,0 -1.35146309,1.19256 -0.6064051,1.71441 0.4910635,0.34396 0.88236467,0.32165 1.27678477,-0.0728 z"
       id="path59"
       transform="translate(14.130321,-101.12323)" />
    <path
       inkscape:export-ydpi="199.83673"
       inkscape:export-xdpi="199.83673"
       style="fill:#43adff;fill-opacity:0.538462;stroke-width:0.164164"
       d="m 19.588021,124.42895 c 0.47243,-0.47243 0.558157,-0.67375 0.558157,-1.31072 0,-1.82063 -2.182691,-2.62583 -3.351751,-1.23648 -0.653882,0.7771 -0.599281,1.81378 0.134138,2.5472 0.47642,0.47642 0.671135,0.55816 1.329728,0.55816 0.658593,0 0.853307,-0.0817 1.329728,-0.55816 z"
       id="path57"
       transform="translate(14.130321,-101.12323)" />
    <path
       inkscape:export-ydpi="199.83673"
       inkscape:export-xdpi="199.83673"
       style="fill:#43adff;fill-opacity:0.538462;stroke-width:0.164164"
       d="m 6.6499819,124.45675 c 0.2475757,-0.51906 0.072249,-0.99176 -0.4767977,-1.2856 -0.508826,-0.27232 -1.0617301,-0.0587 -1.2929879,0.49963 -0.1733078,0.41842 -0.162473,0.55769 0.071198,0.91431 0.2268746,0.34626 0.3826169,0.41179 0.8801977,0.37033 0.4712654,-0.0392 0.6517144,-0.14921 0.8183899,-0.49867 z"
       id="path55"
       transform="translate(14.130321,-101.12323)" />
    <path
       inkscape:export-ydpi="199.83673"
       inkscape:export-xdpi="199.83673"
       style="fill:#43adff;fill-opacity:0.538462;stroke-width:0.164164"
       d="m 11.73729,125.38825 c 0.714737,-0.50063 0.367924,-1.71441 -0.489849,-1.71441 -1.002648,0 -1.4646867,0.96388 -0.786936,1.64163 0.39442,0.39443 0.785721,0.41673 1.276785,0.0728 z"
       id="path53"
       transform="translate(14.130321,-101.12323)" />
    <path
       inkscape:export-ydpi="199.83673"
       inkscape:export-xdpi="199.83673"
       style="fill:#43adff;fill-opacity:0.538462;stroke-width:0.164164"
       d="m 15.724537,126.95134 c 0.210311,-0.11256 0.317543,-0.34379 0.317543,-0.68477 0,-1.00265 -0.963889,-1.46469 -1.641639,-0.78693 -0.868132,0.86813 0.210917,2.06746 1.324096,1.4717 z"
       id="path51"
       transform="translate(14.130321,-101.12323)" />
    <path
       inkscape:export-ydpi="199.83673"
       inkscape:export-xdpi="199.83673"
       style="fill:#43adff;fill-opacity:0.538462;stroke-width:0.164164"
       d="m 18.80051,128.1682 c 0.06319,-0.44291 -0.429502,-0.65542 -0.757978,-0.32695 -0.334484,0.33448 -0.121383,0.79323 0.338145,0.72798 0.230338,-0.0327 0.388888,-0.18416 0.419833,-0.40103 z"
       id="path49"
       transform="translate(14.130321,-101.12323)" />
    <path
       inkscape:export-ydpi="199.83673"
       inkscape:export-xdpi="199.83673"
       style="fill:#43adff;fill-opacity:0.538462;stroke-width:0.164164"
       d="m 24.407906,128.85288 c 0.299649,-0.36106 0.05412,-0.91078 -0.406782,-0.91078 -0.480819,0 -0.770273,0.44972 -0.551968,0.85762 0.188674,0.35255 0.687322,0.3802 0.95875,0.0532 z"
       id="path47"
       transform="translate(14.130321,-101.12323)" />
    <path
       inkscape:export-ydpi="199.83673"
       inkscape:export-xdpi="199.83673"
       style="fill:#43adff;fill-opacity:0.538462;stroke-width:0.164164"
       d="m 11.02577,131.35301 c 0.343957,-0.49106 0.321647,-0.88236 -0.07277,-1.27678 -0.656311,-0.65632 -1.6416384,-0.26219 -1.6416384,0.65665 0,0.25797 0.116081,0.58513 0.2579667,0.72701 0.382913,0.38291 1.1529727,0.3264 1.4564457,-0.10688 z"
       id="path45"
       transform="translate(14.130321,-101.12323)" />
    <path
       inkscape:export-ydpi="199.83673"
       inkscape:export-xdpi="199.83673"
       style="fill:#43adff;fill-opacity:0.538462;stroke-width:0.164164"
       d="m 23.340036,132.23349 c 0.14934,-0.47052 -0.06951,-0.84395 -0.49456,-0.84395 -0.475205,0 -0.762623,0.45188 -0.545467,0.85762 0.208504,0.38959 0.914984,0.3803 1.040027,-0.0137 z"
       id="path43"
       transform="translate(14.130321,-101.12323)" />
    <path
       inkscape:export-ydpi="199.83673"
       inkscape:export-xdpi="199.83673"
       style="fill:#43adff;fill-opacity:0.538462;stroke-width:0.164164"
       d="m 4.0459317,133.04336 c 0.4028418,-0.40285 0.2715763,-0.96701 -0.2558167,-1.09938 -0.7434328,-0.18659 -1.1717529,0.60899 -0.6231827,1.15755 0.3358958,0.33589 0.495496,0.32532 0.8789994,-0.0582 z"
       id="path41"
       transform="translate(14.130321,-101.12323)" />
    <path
       inkscape:export-ydpi="199.83673"
       inkscape:export-xdpi="199.83673"
       style="fill:#43adff;fill-opacity:0.538462;stroke-width:0.164164"
       d="m 5.9921771,138.51551 c 0.5232397,-0.34285 0.9083682,-1.29971 0.7858855,-1.95259 -0.3183959,-1.69722 -2.8467666,-2.07757 -3.6381025,-0.5473 -0.9253757,1.78946 1.1544008,3.61233 2.852217,2.49989 z"
       id="path39"
       transform="translate(14.130321,-101.12323)" />
    <path
       inkscape:export-ydpi="199.83673"
       inkscape:export-xdpi="199.83673"
       style="fill:#43adff;fill-opacity:0.538462;stroke-width:0.164164"
       d="m 14.065743,139.77379 c 0.251072,-0.46912 0.03881,-0.83271 -0.486122,-0.83271 -0.264469,0 -0.499141,0.10887 -0.556418,0.25814 -0.141723,0.36931 0.184077,0.89101 0.556418,0.89101 0.174227,0 0.392992,-0.1424 0.486122,-0.31644 z"
       id="path37"
       transform="translate(14.130321,-101.12323)" />
    <path
       inkscape:export-ydpi="199.83673"
       inkscape:export-xdpi="199.83673"
       style="fill:#43adff;fill-opacity:0.538462;stroke-width:0.164164"
       d="m 10.706751,140.82896 c 0,-0.43727 -0.05498,-0.49249 -0.490243,-0.49249 -0.3424127,0 -0.5074797,0.0895 -0.5474207,0.29688 -0.102537,0.53248 0.105311,0.79535 0.5852767,0.74014 0.381648,-0.0439 0.452387,-0.12905 0.452387,-0.54453 z"
       id="path35"
       transform="translate(14.130321,-101.12323)" />
    <path
       inkscape:export-ydpi="199.83673"
       inkscape:export-xdpi="199.83673"
       style="fill:#43adff;fill-opacity:0.538462;stroke-width:0.164164"
       d="m 14.455288,147.63131 c -1.116266,-0.55255 -1.558196,-2.04797 -0.923012,-3.12327 0.27266,-0.46155 0.267833,-0.50249 -0.162375,-1.37968 l -0.443374,-0.904 -1.766536,-0.002 c -1.105316,-0.001 -2.3491191,-0.12236 -3.3229561,-0.32328 -0.8560164,-0.17662 -1.6041442,-0.26799 -1.6624881,-0.20305 -0.05836,0.0649 -0.2341142,0.51245 -0.3905624,0.99447 -0.2719375,0.83788 -0.2713301,0.90073 0.01379,1.4301 0.2306667,0.42831 0.2619728,0.6567 0.138226,1.00856 -0.3663975,1.04183 -1.905894,0.84488 -2.012502,-0.25746 -0.053813,-0.55634 0.3201853,-1.16971 0.7131938,-1.16971 0.2206856,0 0.4018733,-0.86028 0.4046476,-1.92125 0.00164,-0.65964 -0.030436,-0.70427 -0.7306936,-1.01403 -1.1491804,-0.50834 -2.8661381,-1.67818 -3.98824754,-2.71739 l -1.02707517,-0.95118 -0.90465809,0.36718 c -1.0258769,0.41637 -1.1030668,0.50141 -1.1851159,1.30573 -0.124781,1.22316 -1.0690684,1.97439 -2.4829958,1.97537 -0.8050763,5e-4 -0.9362269,-0.0544 -1.5185163,-0.63672 -0.5823057,-0.5823 -0.6373007,-0.71346 -0.6367427,-1.51852 0.0016,-1.71449 0.9459127,-2.54148 2.7388453,-2.39756 1.0134003,0.0813 1.0522415,0.0694 1.7307474,-0.53273 l 0.6940687,-0.61594 -0.6918853,-1.45826 c -0.8106907,-1.70863 -1.1581765,-2.80621 -1.4199194,-4.48492 -0.1790044,-1.14817 -0.2193394,-1.22921 -0.6774553,-1.36133 -0.8351676,-0.24086 -1.7930967,-0.0265 -2.3441134,0.5245 -0.7418064,0.7418 -1.7905668,0.58132 -2.1688338,-0.33188 -0.225003,-0.5432 -0.100944,-1.02957 0.375919,-1.47384 0.4705097,-0.43835 1.1457161,-0.40575 1.7270198,0.0834 0.457049,0.38458 0.5345507,0.39702 1.4588098,0.23421 0.5368817,-0.0946 1.0724665,-0.23147 1.1902049,-0.30424 0.1256346,-0.0776 0.2678827,-0.66604 0.344383,-1.42439 0.1606673,-1.59307 0.5397546,-3.09128 1.1391992,-4.50237 l 0.4571473,-1.07614 -0.5946839,-0.48933 c -0.3270802,-0.26913 -0.9903352,-0.77572 -1.4738965,-1.12574 -0.8184064,-0.59241 -0.9157064,-0.62322 -1.407049,-0.44555 -1.6390125,0.59265 -3.0491306,-0.26809 -3.0491306,-1.86118 0,-1.21873 0.8333124,-2.05205 2.0520478,-2.05205 1.1881696,0 1.8683992,0.62857 2.0430532,1.88789 0.088173,0.63565 0.138341,0.68151 1.5685535,1.43374 0.8126114,0.42739 1.5932602,0.75983 1.7347696,0.73874 0.1414928,-0.0211 0.9312034,-0.74484 1.75487949,-1.60832 l 1.49761801,-1.56997 -0.40985157,-0.68729 c -0.3026855,-0.50757 -0.51471947,-0.68728 -0.81095327,-0.68728 -0.51867587,0 -1.05775736,-0.54383 -1.05775736,-1.06706 0,-0.22573 0.14774749,-0.55816 0.32832779,-0.73874 0.73199057,-0.73199 1.92093121,-0.11644 1.75463311,0.9084 -0.072314,0.44562 0.00542,0.65022 0.4329659,1.1397 l 0.5211055,0.59657 1.6982759,-0.87089 1.6982595,-0.87088 -0.095888,-1.47748 c -0.1633431,-2.51643 -0.2191916,-2.69358 -0.9403146,-2.98212 -1.5810956,-0.63263 -1.7559138,-3.11631 -0.2771251,-3.93691 0.2085867,-0.11575 0.7744762,-0.21308 1.2575286,-0.21628 0.7796144,-0.005 0.9395265,0.0554 1.4234818,0.53939 0.8882253,0.88823 0.9595709,2.08706 0.1793983,3.01424 l -0.39181,0.46565 0.392795,1.36055 c 0.2160397,0.74831 0.4954303,1.60622 0.6208844,1.90648 l 0.2281057,0.54592 1.9460312,-0.0787 c 2.2166727,-0.0896 2.2354047,-0.10042 2.5397637,-1.46043 0.172044,-0.76879 0.162523,-0.9184 -0.07524,-1.18111 -0.598377,-0.66119 -0.09001,-1.83452 0.794834,-1.83452 0.225725,0 0.558158,0.14775 0.738738,0.32833 0.474286,0.47428 0.414924,1.10069 -0.154708,1.63281 -0.411757,0.38464 -0.488618,0.58885 -0.520778,1.38373 -0.02075,0.51288 0.0304,0.99084 0.113683,1.06214 0.08326,0.0713 0.631572,0.22267 1.218459,0.33639 0.586886,0.11371 1.508896,0.38406 2.048897,0.60077 l 0.981831,0.39401 0.360094,-0.44767 c 0.198047,-0.24622 0.597934,-0.83818 0.888652,-1.31548 0.458575,-0.75289 0.503688,-0.92239 0.340755,-1.27999 -0.27394,-0.60125 -0.229994,-1.82139 0.08282,-2.29879 0.829257,-1.26561 2.945938,-1.14991 3.584568,0.19592 0.679097,1.43107 -0.227564,3.01944 -1.723508,3.01944 -0.481656,0 -0.548668,0.081 -1.157306,1.39837 -0.355333,0.7691 -0.644146,1.45244 -0.641815,1.51852 0.0023,0.0661 0.385358,0.3787 0.85119,0.69471 0.465831,0.31602 1.315675,1.03629 1.888525,1.6006 0.572867,0.56432 1.124621,1.02603 1.226124,1.02603 0.101503,0 0.653356,-0.26218 1.226354,-0.58261 0.837794,-0.46852 1.041801,-0.6614 1.041801,-0.98498 0,-0.51979 0.543333,-1.05904 1.067065,-1.05904 0.512339,0 1.067066,0.53574 1.067066,1.03054 0,0.20564 -0.11984,0.54497 -0.266291,0.75407 -0.220094,0.31424 -0.381484,0.3692 -0.930366,0.31686 -0.611724,-0.0583 -0.73946,0.006 -1.620741,0.82238 l -0.956665,0.88571 0.337094,0.47343 c 0.185423,0.26038 0.631834,1.10232 0.992042,1.87099 0.360209,0.76866 0.743712,1.39772 0.852225,1.3979 0.108512,1.6e-4 0.846363,-0.11879 1.639669,-0.26439 1.416242,-0.25993 1.448205,-0.27622 1.766371,-0.89985 0.401676,-0.78735 1.045905,-1.13439 2.105845,-1.13439 1.007163,0 1.726972,0.53245 2.013734,1.48957 0.621918,2.07578 -1.708848,3.60884 -3.568251,2.34702 l -0.636102,-0.43167 -1.315725,0.43257 c -1.764286,0.58002 -1.712607,0.53018 -1.552876,1.49784 0.07451,0.45145 0.139884,1.41669 0.145269,2.14498 l 0.0099,1.32417 0.986773,0.47164 c 0.762459,0.36442 1.031146,0.42726 1.18198,0.27643 0.548406,-0.5484 1.771181,0.0535 1.771181,0.87186 0,1.17568 -1.712279,1.43788 -2.134689,0.32687 -0.108184,-0.28456 -0.383438,-0.46152 -1.005045,-0.64611 -0.470822,-0.13982 -0.880247,-0.23002 -0.909829,-0.20043 -0.02958,0.0296 -0.194551,0.60421 -0.366611,1.27695 -0.17206,0.67274 -0.504656,1.69526 -0.739115,2.27225 -0.234459,0.577 -0.426285,1.09993 -0.426285,1.16208 0,0.0621 0.446707,0.35107 0.992667,0.64207 0.76108,0.40565 1.044624,0.48598 1.215322,0.34431 0.790416,-0.65599 2.256433,-0.48849 2.951191,0.33719 0.809804,0.96241 0.448529,2.73931 -0.650302,3.19844 -0.705758,0.29488 -1.284649,0.29609 -1.84975,0.004 -0.672137,-0.34757 -1.058611,-0.85471 -1.169028,-1.53403 -0.09435,-0.58041 -0.161045,-0.63801 -1.246333,-1.07615 l -1.146668,-0.4629 -0.41041,0.54315 c -0.786788,1.04127 -2.223715,2.4804 -3.283279,3.28833 -1.203814,0.91792 -3.628072,2.14766 -4.806309,2.43809 -0.855015,0.21075 -0.851042,0.19437 -0.343102,1.41004 0.183601,0.43941 0.321547,0.54783 0.697056,0.54783 0.888225,0 1.825733,1.13243 1.825733,2.20537 0,0.75949 -0.513489,1.55127 -1.231427,1.89882 -0.852208,0.41255 -1.145388,0.411 -1.997005,-0.0105 z"
       id="path154"
       transform="translate(14.130321,-101.12323)" />
  </g>
  <g
     id="layer1"
     inkscape:groupmode="layer"
     inkscape:label="Layer 1">
    <text
       id="text20"
       y="21.742985"
       x="69.20575"
       style="font-size:13.4056px;line-height:1.25;font-family:Helvetica;-inkscape-font-specification:Helvetica;text-align:center;text-anchor:middle;stroke-width:0.264583"
       xml:space="preserve"><tspan
         style="text-align:center;text-anchor:middle;stroke-width:0.264583"
         y="21.742985"
         x="69.20575"
         id="tspan18"
         sodipodi:role="line">CoViD</tspan><tspan
         id="tspan22"
         style="font-weight:bold;text-align:center;text-anchor:middle;stroke-width:0.264583"
         y="38.499985"
         x="69.20575"
         sodipodi:role="line">Collab</tspan></text>
  </g>
</svg>
